<?xml version="1.0" encoding="UTF-8" standalone="no"?>
<svg
   xmlns:dc="http://purl.org/dc/elements/1.1/"
   xmlns:cc="http://creativecommons.org/ns#"
   xmlns:rdf="http://www.w3.org/1999/02/22-rdf-syntax-ns#"
   xmlns:svg="http://www.w3.org/2000/svg"
   xmlns="http://www.w3.org/2000/svg"
   xmlns:sodipodi="http://sodipodi.sourceforge.net/DTD/sodipodi-0.dtd"
   xmlns:inkscape="http://www.inkscape.org/namespaces/inkscape"
   id="Calque_1"
   viewBox="0 0 815.75001 326"
   version="1.1"
   sodipodi:docname="VE-BUILDING-SERVICES_DIGI_RVB.svg"
   width="815.75"
   height="326"
   inkscape:version="0.92.4 (5da689c313, 2019-01-14)">
  <metadata
     id="metadata87">
    <rdf:RDF>
      <cc:Work
         rdf:about="">
        <dc:format>image/svg+xml</dc:format>
        <dc:type
           rdf:resource="http://purl.org/dc/dcmitype/StillImage" />
        <dc:title></dc:title>
      </cc:Work>
    </rdf:RDF>
  </metadata>
  <sodipodi:namedview
     pagecolor="#ffffff"
     bordercolor="#666666"
     borderopacity="1"
     objecttolerance="10"
     gridtolerance="10"
     guidetolerance="10"
     inkscape:pageopacity="0"
     inkscape:pageshadow="2"
     inkscape:window-width="1920"
     inkscape:window-height="1001"
     id="namedview85"
     showgrid="false"
     inkscape:snap-bbox="true"
     inkscape:bbox-paths="true"
     inkscape:bbox-nodes="true"
     inkscape:snap-bbox-edge-midpoints="true"
     inkscape:snap-bbox-midpoints="true"
     inkscape:zoom="0.44138744"
     inkscape:cx="404.02383"
     inkscape:cy="252.69315"
     inkscape:window-x="3191"
     inkscape:window-y="439"
     inkscape:window-maximized="1"
     inkscape:current-layer="Calque_1" />
  <defs
     id="defs4">
    <style
       id="style2">.cls-1{fill:#004489;}.cls-2{fill:#e20025;}</style>
  </defs>
  <rect
     y="79.889984"
     class="cls-1"
     x="440.01999"
     width="3.6800001"
     height="170.08"
     id="rect6"
     style="fill:#004489" />
  <g
     id="g12"
     transform="translate(0,79.890004)">
    <path
       style="fill:#e20025"
       inkscape:connector-curvature="0"
       id="path8"
       d="m 301.35,67.2 h 18.84 c 6.88,-0.01 11.19,-3.51 12.79,-5.18 1.59,-1.67 5.29,-5.85 5.29,-10.7 V 35.65 c 0,-2.9 2.35,-5.24 5.24,-5.24 h 20.42 c 2.9,0 5.25,2.35 5.25,5.25 v 20.43 c 0,2.9 -2.35,5.26 -5.25,5.26 0,0 -15.63,0 -15.66,0 -4.86,0 -9.03,3.71 -10.69,5.31 -1.67,1.59 -5.17,5.9 -5.18,12.78 V 98.27 H 301.35 V 67.22"
       class="cls-2" />
    <path
       style="fill:#e20025"
       inkscape:connector-curvature="0"
       id="path10"
       d="m 408.25,83.72 c 0,-5 -2.01,-9.45 -5.22,-12.71 -3.21,-3.26 -7.71,-5.22 -12.7,-5.22 -10.21,0 -18.35,8.31 -18.35,18.23 0,1.81 0.79,5.24 0.79,6.71 0,7.8 -6.32,14.13 -14.13,14.13 H 343.5 c -2.89,0 -5.24,2.36 -5.24,5.26 v 20.43 c 0,2.9 2.35,5.26 5.24,5.26 h 20.42 c 2.9,0 5.25,-2.35 5.25,-5.26 v -15.14 c 0,-7.81 6.33,-14.14 14.14,-14.14 1.46,0 4.89,0.79 6.7,0.79 9.92,0 18.23,-8.14 18.23,-18.33 z"
       class="cls-2" />
  </g>
  <g
     id="g44"
     transform="translate(0,79.890004)">
    <g
       id="g24">
      <path
         style="fill:#004489"
         inkscape:connector-curvature="0"
         id="path14"
         d="m 180.8,69.55 v 33.07 c 0,0 12.04,2.99 30.91,2.99 18.87,0 30.91,-2.97 30.91,-2.97 V 91.41 c 0,0 -13.09,2.57 -31.04,2.57 -8.71,0 -14.47,-1.03 -17.58,-1.33 0,-2.7 0,-10.35 0,-13.08 3.47,-0.35 9.31,-1.34 17.71,-1.34 17.47,0.06 30.91,2.66 30.91,2.66 V 69.57 c 0,0 -11.99,-2.99 -30.91,-2.99 -18.92,0 -30.91,2.99 -30.91,2.99 z"
         class="cls-1" />
      <rect
         style="fill:#004489"
         id="rect16"
         height="37.689999"
         width="13.54"
         y="67.169998"
         x="257.28"
         class="cls-1" />
      <rect
         style="fill:#004489"
         id="rect18"
         height="37.689999"
         width="13.54"
         y="67.169998"
         x="76.209999"
         class="cls-1" />
      <path
         style="fill:#004489"
         inkscape:connector-curvature="0"
         id="path20"
         d="m 152.71,104.86 c 0,0 -9.78,-7.91 -24.17,-15.36 -4.01,-2.08 -7.4,-3.46 -10.54,-4.74 v 20.1 H 104.9 V 67.24 c 0,0 11.08,2.15 23.66,8.67 14.39,7.46 24.16,14.69 24.16,14.69 V 67.16 h 13.15 v 37.69 h -13.16 z"
         class="cls-1" />
      <path
         style="fill:#004489"
         inkscape:connector-curvature="0"
         id="path22"
         d="M 67.17,75.71 33.6,105.87 0,75.69 10.05,66.54 c 0,0 20.52,19.76 23.56,22.58 3.03,-2.82 23.56,-22.58 23.56,-22.58 l 10.01,9.17 z"
         class="cls-1" />
    </g>
    <g
       id="g42">
      <path
         style="fill:#004489"
         inkscape:connector-curvature="0"
         id="path26"
         d="m 190.46,134.91 v -16.13 h 9.78 v 1.99 h -6.07 v 4.88 h 5.4 v 1.97 h -5.4 v 5.3 h 6.07 v 2 h -9.78 z"
         class="cls-1" />
      <path
         style="fill:#004489"
         inkscape:connector-curvature="0"
         id="path28"
         d="m 215.49,134.91 -7.62,-10.42 c -0.68,-0.91 -1.17,-1.81 -1.17,-1.81 h -0.05 c 0,0 0.11,0.92 0.11,1.88 v 10.35 h -3.12 v -16.13 h 3.5 l 7.19,9.8 c 0.68,0.92 1.09,1.64 1.09,1.64 h 0.06 c 0,0 -0.1,-0.77 -0.1,-1.72 v -9.73 h 3.1 v 16.13 h -2.98 z"
         class="cls-1" />
      <path
         style="fill:#004489"
         inkscape:connector-curvature="0"
         id="path30"
         d="m 222.61,134.91 v -16.13 h 9.78 v 1.99 h -6.06 v 4.88 h 5.4 v 1.97 h -5.4 v 5.3 h 6.06 v 2 h -9.78 z"
         class="cls-1" />
      <path
         style="fill:#004489"
         inkscape:connector-curvature="0"
         id="path32"
         d="m 245.13,123.58 c 0,2.16 -1.4,3.4 -4.27,3.4 -0.55,0 -1.14,-0.04 -1.37,-0.12 v -6.33 c 0.44,-0.16 1.05,-0.29 1.84,-0.29 2.71,0 3.8,1.08 3.8,3.33 z m 4.23,11.33 -5.98,-7.15 v -0.05 c 3.18,-0.16 5.37,-1.83 5.37,-4.27 0,-3.02 -2.42,-4.89 -7.41,-4.89 -2.31,0 -4.24,0.39 -5.49,0.91 v 15.46 h 3.65 v -7.32 h 0.06 l 5.69,7.32 h 4.12 z"
         class="cls-1" />
      <path
         style="fill:#004489"
         inkscape:connector-curvature="0"
         id="path34"
         d="m 260.28,135.14 c -5.38,0 -8.76,-2.98 -8.76,-8.4 0,-5.14 3.65,-8.2 8.85,-8.2 2.28,0 3.88,0.35 5.02,0.89 l -1.12,1.83 c -0.64,-0.3 -1.75,-0.62 -3.47,-0.62 -3.47,0 -5.52,1.93 -5.52,6.24 0,4.08 2.05,6.19 4.85,6.19 1.08,0 1.69,-0.17 2.02,-0.31 v -5.3 h -2.9 v -1.83 h 6.39 v 8.59 c -1.26,0.59 -2.71,0.91 -5.37,0.91 z"
         class="cls-1" />
      <path
         style="fill:#004489"
         inkscape:connector-curvature="0"
         id="path36"
         d="m 269.72,134.91 v -16.13 h 3.73 v 16.13 z"
         class="cls-1" />
      <path
         style="fill:#004489"
         inkscape:connector-curvature="0"
         id="path38"
         d="m 277.65,134.91 v -16.13 h 9.79 v 1.99 h -6.07 v 4.88 h 5.4 v 1.97 h -5.4 v 5.3 h 6.07 v 2 h -9.79 z"
         class="cls-1" />
      <path
         style="fill:#004489"
         inkscape:connector-curvature="0"
         id="path40"
         d="m 294.8,135.14 c -2.4,0 -3.89,-0.35 -4.97,-0.91 l 0.91,-2.09 c 0.71,0.37 1.85,0.75 3.37,0.75 1.98,0 3.21,-0.99 3.21,-2.49 0,-1.22 -0.88,-1.97 -3.13,-2.71 -3.27,-1.1 -4.15,-2.84 -4.15,-4.42 0,-2.55 2.31,-4.73 6.01,-4.73 2.02,0 3.5,0.39 4.42,0.91 l -0.82,1.83 c -0.7,-0.35 -1.81,-0.72 -3.1,-0.72 -1.83,0 -2.89,0.91 -2.89,2.34 0,1.43 1.29,2.07 3.04,2.66 3.94,1.33 4.53,3.11 4.53,4.66 0,2.87 -2.69,4.93 -6.42,4.93 z"
         class="cls-1" />
    </g>
  </g>
  <path
     style="fill:#004489"
     inkscape:connector-curvature="0"
     id="path48"
     d="m 483.13,179.7 c -3.57,0 -6.45,-0.58 -8.38,-1.6 v -25.88 c 1.73,-0.95 4.64,-1.6 8.05,-1.6 6.82,0 10.19,3.12 10.19,7.31 0,3.86 -2.88,5.87 -5.26,6.41 v 0.08 c 2.59,0.58 6.2,3.04 6.2,7.15 0,5.63 -4.35,8.13 -10.81,8.13 z m -0.33,-26.13 c -1.23,0 -2.18,0.16 -3.12,0.49 v 9.16 l 1.6,0.04 c 5.01,0.12 6.7,-1.6 6.7,-5.01 0,-3.12 -1.77,-4.68 -5.18,-4.68 z m -1.52,12.2 -1.6,0.04 v 10.15 c 0.9,0.37 1.89,0.53 3.29,0.53 3.37,0 5.75,-1.36 5.75,-5.01 0,-3.9 -2.1,-5.83 -7.44,-5.71 z"
     class="cls-1" />
  <path
     style="fill:#004489"
     inkscape:connector-curvature="0"
     id="path50"
     d="m 506.83,179.74 c -5.55,0 -9.33,-3.53 -9.33,-8.67 v -20.05 h 5.22 v 20.01 c 0,3.04 1.97,4.68 4.31,4.68 2.34,0 4.27,-1.64 4.27,-4.68 v -20.01 h 4.85 v 20.05 c 0,5.14 -3.78,8.67 -9.33,8.67 z"
     class="cls-1" />
  <path
     style="fill:#004489"
     inkscape:connector-curvature="0"
     id="path52"
     d="m 521.14,179.29 v -28.27 h 5.26 v 28.27 z"
     class="cls-1" />
  <path
     style="fill:#004489"
     inkscape:connector-curvature="0"
     id="path54"
     d="m 531.41,179.29 v -28.27 h 5.26 v 24.77 h 7.81 v 3.49 h -13.06 z"
     class="cls-1" />
  <path
     style="fill:#004489"
     inkscape:connector-curvature="0"
     id="path56"
     d="m 555.51,179.7 c -3.49,0 -6.29,-0.62 -8.01,-1.6 v -25.88 c 1.85,-0.95 4.48,-1.6 7.72,-1.6 8.54,0 12.24,5.88 12.24,14.34 0,8.46 -3.41,14.75 -11.96,14.75 z m -0.16,-25.68 c -1.11,0 -1.93,0.12 -2.67,0.41 v 21.24 c 0.62,0.21 1.64,0.41 2.75,0.41 4.85,0 6.74,-3.53 6.74,-11.22 0,-7.69 -2.1,-10.85 -6.82,-10.85 z"
     class="cls-1" />
  <path
     style="fill:#004489"
     inkscape:connector-curvature="0"
     id="path58"
     d="m 571.48,179.29 v -28.27 h 5.26 v 28.27 z"
     class="cls-1" />
  <path
     style="fill:#004489"
     inkscape:connector-curvature="0"
     id="path60"
     d="m 598.38,179.29 -10.72,-18.24 c -0.95,-1.6 -1.64,-3.16 -1.64,-3.16 h -0.08 c 0,0 0.16,1.6 0.16,3.29 v 18.12 h -4.4 v -28.27 h 4.93 l 10.11,17.17 c 0.95,1.6 1.52,2.88 1.52,2.88 h 0.08 c 0,0 -0.12,-1.36 -0.12,-3 v -17.05 h 4.35 v 28.27 h -4.19 z"
     class="cls-1" />
  <path
     style="fill:#004489"
     inkscape:connector-curvature="0"
     id="path62"
     d="m 618.77,179.7 c -7.56,0 -12.33,-5.22 -12.33,-14.71 0,-9 5.14,-14.38 12.45,-14.38 3.2,0 5.46,0.62 7.07,1.56 l -1.56,3.2 c -0.9,-0.53 -2.46,-1.07 -4.89,-1.07 -4.89,0 -7.77,3.37 -7.77,10.93 0,7.15 2.88,10.85 6.82,10.85 1.52,0 2.38,-0.29 2.83,-0.53 v -9.29 h -4.07 v -3.2 h 9 v 15.04 c -1.77,1.03 -3.82,1.6 -7.56,1.6 z"
     class="cls-1" />
  <path
     style="fill:#004489"
     inkscape:connector-curvature="0"
     id="path64"
     d="m 647.49,179.7 c -3.37,0 -5.46,-0.62 -6.98,-1.6 l 1.27,-3.66 c 0.99,0.66 2.59,1.31 4.72,1.31 2.79,0 4.52,-1.73 4.52,-4.35 0,-2.14 -1.23,-3.45 -4.4,-4.77 -4.6,-1.93 -5.83,-4.97 -5.83,-7.72 0,-4.48 3.25,-8.3 8.46,-8.3 2.83,0 4.93,0.7 6.2,1.6 l -1.15,3.2 c -0.99,-0.62 -2.55,-1.27 -4.35,-1.27 -2.59,0 -4.07,1.6 -4.07,4.11 0,2.51 1.81,3.62 4.27,4.64 5.55,2.34 6.37,5.46 6.37,8.18 0,5.01 -3.78,8.63 -9.04,8.63 z"
     class="cls-1" />
  <path
     style="fill:#004489"
     inkscape:connector-curvature="0"
     id="path66"
     d="m 669.93,179.7 c -7.6,0 -10.64,-6.49 -10.64,-14.54 0,-8.05 3.04,-14.54 10.64,-14.54 7.6,0 10.6,6.53 10.6,14.54 0,8.01 -3,14.54 -10.6,14.54 z m 0,-25.64 c -4.35,0 -5.34,5.63 -5.34,10.93 0,5.3 0.86,10.85 5.34,10.85 4.48,0 5.3,-5.59 5.3,-10.85 0,-5.26 -0.95,-10.93 -5.3,-10.93 z"
     class="cls-1" />
  <path
     style="fill:#004489"
     inkscape:connector-curvature="0"
     id="path68"
     d="m 684.58,179.29 v -28.27 h 5.26 v 24.77 h 7.81 v 3.49 h -13.06 z"
     class="cls-1" />
  <path
     style="fill:#004489"
     inkscape:connector-curvature="0"
     id="path70"
     d="m 709.49,179.74 c -5.55,0 -9.33,-3.53 -9.33,-8.67 v -20.05 h 5.22 v 20.01 c 0,3.04 1.97,4.68 4.31,4.68 2.34,0 4.27,-1.64 4.27,-4.68 v -20.01 h 4.85 v 20.05 c 0,5.14 -3.78,8.67 -9.33,8.67 z"
     class="cls-1" />
  <path
     style="fill:#004489"
     inkscape:connector-curvature="0"
     id="path72"
     d="m 732.34,154.52 v 24.77 h -5.22 v -24.77 h -5.26 v -3.49 h 15.78 v 3.49 z"
     class="cls-1" />
  <path
     style="fill:#004489"
     inkscape:connector-curvature="0"
     id="path74"
     d="m 740.69,179.29 v -28.27 h 5.26 v 28.27 z"
     class="cls-1" />
  <path
     style="fill:#004489"
     inkscape:connector-curvature="0"
     id="path76"
     d="m 760.63,179.7 c -7.6,0 -10.64,-6.49 -10.64,-14.54 0,-8.05 3.04,-14.54 10.64,-14.54 7.6,0 10.6,6.53 10.6,14.54 0,8.01 -3,14.54 -10.6,14.54 z m 0,-25.64 c -4.35,0 -5.34,5.63 -5.34,10.93 0,5.3 0.86,10.85 5.34,10.85 4.48,0 5.3,-5.59 5.3,-10.85 0,-5.26 -0.95,-10.93 -5.3,-10.93 z"
     class="cls-1" />
  <path
     style="fill:#004489"
     inkscape:connector-curvature="0"
     id="path78"
     d="M 791.92,179.29 781.2,161.05 c -0.95,-1.6 -1.64,-3.16 -1.64,-3.16 h -0.08 c 0,0 0.16,1.6 0.16,3.29 v 18.12 h -4.4 v -28.27 h 4.93 l 10.11,17.17 c 0.95,1.6 1.52,2.88 1.52,2.88 h 0.08 c 0,0 -0.12,-1.36 -0.12,-3 v -17.05 h 4.35 v 28.27 h -4.19 z"
     class="cls-1" />
  <path
     style="fill:#004489"
     inkscape:connector-curvature="0"
     id="path80"
     d="m 806.57,179.7 c -3.37,0 -5.46,-0.62 -6.98,-1.6 l 1.27,-3.66 c 0.99,0.66 2.59,1.31 4.72,1.31 2.79,0 4.52,-1.73 4.52,-4.35 0,-2.14 -1.23,-3.45 -4.4,-4.77 -4.6,-1.93 -5.83,-4.97 -5.83,-7.72 0,-4.48 3.25,-8.3 8.46,-8.3 2.83,0 4.93,0.7 6.2,1.6 l -1.15,3.2 c -0.99,-0.62 -2.55,-1.27 -4.35,-1.27 -2.59,0 -4.07,1.6 -4.07,4.11 0,2.51 1.81,3.62 4.27,4.64 5.55,2.34 6.37,5.46 6.37,8.18 0,5.01 -3.78,8.63 -9.04,8.63 z"
     class="cls-1" />
</svg>
